# xmcd CD database file generated by Grip 3.3.1
# 
# Track frame offsets:
#       150
#       21230
#       42941
#       66082
#       84994
#       104658
#       121887
#       138242
#       156540
#       172941
#       194421
#       210873
#       229289
#       246120
#       263249
#       284013
#       303788
#       322448
# 
# Disc length: 4493 seconds
# 
# Revision: 2
# Processed by: cddbd v1.5.2PL0 Copyright (c) Steve Scherf et al.
# Submitted via: Grip 3.3.1
# 
DISCID=07118b12
DTITLE=Blues Traveler - 25 Disc1 (Greatest Hits - Stop Hitting Yourself)
DYEAR=2012
DGENRE=Blues
TTITLE0=Run Around
TTITLE1=Hook
TTITLE2=The Mountains Win Again
TTITLE3=But Anyway
TTITLE4=You Me And Everything
TTITLE5=Amber Awaits
TTITLE6=After What
TTITLE7=Back In The Day
TTITLE8=Girl Inside My Head 
TTITLE9=Carolina Blues
TTITLE10=Let Her And Let Go
TTITLE11=Gina
TTITLE12=100 Years 
TTITLE13=What's For Breakfast
TTITLE14=NY Prophesie
TTITLE15=Unable To Get Free
TTITLE16=How You Remember It
TTITLE17=What I Got (Bonus Track)
EXTD=
EXTT0=
EXTT1=
EXTT2=
EXTT3=
EXTT4=
EXTT5=
EXTT6=
EXTT7=
EXTT8=
EXTT9=
EXTT10=
EXTT11=
EXTT12=
EXTT13=
EXTT14=
EXTT15=
EXTT16=
EXTT17=
PLAYORDER=
